# xmcd
#
# Track frame offsets: 
#        150
#        21716
#        37494
#        56280
#        76950
#        100008
#        117624
#        136272
#        157240
#        178553
#        196295
#        219713
#        236914
#        252764
#
# Disc length: 3719 seconds
#
# Revision: 3
# Processed by: cddbd v1.5.2PL0 Copyright (c) Steve Scherf et al.
# Submitted via: ExactAudioCopy v0.95b4
#
DISCID=d00e850e
DTITLE=Benny Benassi - The Biz - Hypnotica
DYEAR=2003
DGENRE=Electric House
TTITLE0=Satisfaction (Isak Original)
TTITLE1=Able To Love (Sfaction Mix)
TTITLE2=No Matter What You Do
TTITLE3=Let It Be
TTITLE4=Love Is Gonna Save Us
TTITLE5=Inside Of Me
TTITLE6=I Wanna Touch Your Soul
TTITLE7=I'm Sorry
TTITLE8=Time
TTITLE9=Puts Your Hands Up
TTITLE10=Get Loose
TTITLE11=Change Style
TTITLE12=I Love My Sex (Sfaction Mix)
TTITLE13=Don't Touch Too Much (Sfaction Mix)
EXTD=
EXTT0=
EXTT1=
EXTT2=
EXTT3=
EXTT4=
EXTT5=
EXTT6=
EXTT7=
EXTT8=
EXTT9=
EXTT10=
EXTT11=
EXTT12=
EXTT13=
PLAYORDER=
